# xmcd
#
# Track frame offsets:
#	182
#	14820
#	27757
#	40095
#	51045
#	62945
#	68795
#	79445
#	92632
#	104870
#	116182
#	133307
#	143857
#	152870
#	168245
#
# Disc length: 2401 seconds
#
# Revision: 1
# Processed by: cddbd v1.5.2PL0 Copyright (c) Steve Scherf et al.
# Submitted via: audiograbber 1.83.01
#
DISCID=df095f0f
DTITLE=aa.vv. - 039 - Canti di montagna
DYEAR=1994
DGENRE=Oldies
TTITLE0=Coro SAT - La montanara
TTITLE1=Coro SAT - Valsugana
TTITLE2=Coro SAT - La bergera
TTITLE3=Coro SAT - Fila fila
TTITLE4=Coro SAT - La sposa morta
TTITLE5=Coro Grigna - Aprite le porte
TTITLE6=Coro Grigna - Va l'alpin
TTITLE7=Coro Monterosa - Stelutis Alpinis
TTITLE8=Coro Stella Alpina - Signore delle cime
TTITLE9=M. Piovano - A la moda dij montagnun
TTITLE10=G. Latilla - Vecchio scarpone
TTITLE11=Coro SAT - La pastora
TTITLE12=A. Del Pelo - Canta lo sciatore
TTITLE13=G. Christian - L. Glori - Le trote blu
TTITLE14=R. Pavone - Sul cucuzzolo
EXTD=
EXTT0=
EXTT1=
EXTT2=
EXTT3=
EXTT4=
EXTT5=
EXTT6=
EXTT7=
EXTT8=
EXTT9=
EXTT10=
EXTT11=
EXTT12=
EXTT13=
EXTT14=
PLAYORDER=
